HIERARCHY
ROOT Hips
{
	OFFSET 0.000000 0.000000 0.000000
	CHANNELS 6 Xposition Yposition Zposition Zrotation Yrotation Xrotation 
	JOINT LHipJoint
	{
		OFFSET 0.000000 0.000000 0.000000
		CHANNELS 3 Zrotation Yrotation Xrotation
		JOINT LeftUpLeg
		{
			OFFSET 1.363060 -1.794630 0.839290
			CHANNELS 3 Zrotation Yrotation Xrotation
			JOINT LeftLeg
			{
				OFFSET 2.448110 -6.726130 0.000000
				CHANNELS 3 Zrotation Yrotation Xrotation
				JOINT LeftFoot
				{
					OFFSET 2.562200 -7.039590 0.000000
					CHANNELS 3 Zrotation Yrotation Xrotation
					JOINT LeftToeBase
					{
						OFFSET 0.157640 -0.433110 2.322550
						CHANNELS 3 Zrotation Yrotation Xrotation
						End Site
						{
							OFFSET 0.000000 0.000000 0.000000
						}
					}
				}
			}
		}
	}
	JOINT RHipJoint
	{
		OFFSET 0.000000 0.000000 0.000000
		CHANNELS 3 Zrotation Yrotation Xrotation
		JOINT RightUpLeg
		{
			OFFSET -1.305520 -1.794630 0.839290
			CHANNELS 3 Zrotation Yrotation Xrotation
			JOINT RightLeg
			{
				OFFSET -2.542530 -6.985550 0.000000
				CHANNELS 3 Zrotation Yrotation Xrotation
				JOINT RightFoot
				{
					OFFSET -2.568260 -7.056230 0.000000
					CHANNELS 3 Zrotation Yrotation Xrotation
					JOINT RightToeBase
					{
						OFFSET -0.164730 -0.452590 2.363150
						CHANNELS 3 Zrotation Yrotation Xrotation
						End Site
						{
							OFFSET 0.000000 0.000000 0.000000
						}
					}
				}
			}
		}
	}
	JOINT LowerBack
	{
		OFFSET 0.000000 0.000000 0.000000
		CHANNELS 3 Zrotation Yrotation Xrotation
		JOINT Spine
		{
			OFFSET 0.028270 2.035590 -0.193380
			CHANNELS 3 Zrotation Yrotation Xrotation
			JOINT Spine1
			{
				OFFSET 0.056720 2.048850 -0.042750
				CHANNELS 3 Zrotation Yrotation Xrotation
				JOINT Neck
				{
					OFFSET 0.000000 0.000000 0.000000
					CHANNELS 3 Zrotation Yrotation Xrotation
					JOINT Neck1
					{
						OFFSET -0.054170 1.746240 0.172020
						CHANNELS 3 Zrotation Yrotation Xrotation
						JOINT Head
						{
							OFFSET 0.104070 1.761360 -0.123970
							CHANNELS 3 Zrotation Yrotation Xrotation
							End Site
							{
								OFFSET 0.000000 0.000000 0.000000
							}
						}
					}
				}
				JOINT LeftShoulder
				{
					OFFSET 0.000000 0.000000 0.000000
					CHANNELS 3 Zrotation Yrotation Xrotation
					JOINT LeftArm
					{
						OFFSET 3.362410 1.200890 -0.311210
						CHANNELS 3 Zrotation Yrotation Xrotation
						JOINT LeftForeArm
						{
							OFFSET 4.983000 -0.000000 -0.000000
							CHANNELS 3 Zrotation Yrotation Xrotation
							JOINT LeftHand
							{
								OFFSET 3.483560 -0.000000 -0.000000
								CHANNELS 3 Zrotation Yrotation Xrotation
								JOINT LeftFingerBase
								{
									OFFSET 0.000000 0.000000 0.000000
									CHANNELS 3 Zrotation Yrotation Xrotation
									JOINT LeftHandIndex1
									{
										OFFSET 0.715260 -0.000000 -0.000000
										CHANNELS 3 Zrotation Yrotation Xrotation
										End Site
										{
											OFFSET 0.000000 0.000000 0.000000
										}
									}
								}
								JOINT LThumb
								{
									OFFSET 0.000000 0.000000 0.000000
									CHANNELS 3 Zrotation Yrotation Xrotation
									End Site
									{
										OFFSET 0.000000 0.000000 0.000000
									}
								}
							}
						}
					}
				}
				JOINT RightShoulder
				{
					OFFSET 0.000000 0.000000 0.000000
					CHANNELS 3 Zrotation Yrotation Xrotation
					JOINT RightArm
					{
						OFFSET -3.136600 1.374050 -0.404650
						CHANNELS 3 Zrotation Yrotation Xrotation
						JOINT RightForeArm
						{
							OFFSET -5.241900 -0.000000 -0.000000
							CHANNELS 3 Zrotation Yrotation Xrotation
							JOINT RightHand
							{
								OFFSET -3.444170 -0.000000 -0.000000
								CHANNELS 3 Zrotation Yrotation Xrotation
								JOINT RightFingerBase
								{
									OFFSET 0.000000 0.000000 0.000000
									CHANNELS 3 Zrotation Yrotation Xrotation
									JOINT RightHandIndex1
									{
										OFFSET -0.622530 -0.000000 -0.000000
										CHANNELS 3 Zrotation Yrotation Xrotation
										End Site
										{
											OFFSET 0.000000 0.000000 0.000000
										}
									}
								}
								JOINT RThumb
								{
									OFFSET 0.000000 0.000000 0.000000
									CHANNELS 3 Zrotation Yrotation Xrotation
									End Site
									{
										OFFSET 0.000000 0.000000 0.000000
									}
								}
							}
						}
					}
				}
			}
		}
	}
}
MOTION
Frames: 6
Frame Time: 0.008333
-24.228069 4.136382 3.790719 100.906226 44.445238 -108.790006 9.801013 87.789848 -70.467909 -86.671025 26.559321 25.770708 -133.089176 -12.526765 -164.447581 93.209120 41.284495 33.691019 1.661200 8.121600 23.083900 44.410509 -20.652462 126.186401 160.471392 17.908801 -75.962919 -21.021029 60.485233 42.986744 -80.158717 1.664086 -55.202015 -4.032700 -12.203800 36.456800 0.998007 -38.357117 -22.987243 -114.100452 21.284242 45.446557 -76.078166 29.732727 112.770518 53.658868 -63.445831 -30.761961 -5.991699 40.673343 81.471850 -4.860700 10.635800 12.857300 -154.193118 66.062832 -64.118931 -110.957547 4.636052 74.302317 -43.863902 -79.382483 -75.425603 30.171011 -58.411228 -12.630277 15.106954 -79.940630 -5.614400 -7.125000 0.000000 0.000000 -4.060900 14.536300 2.919100 41.412347 83.655649 137.536822 -122.782259 48.791102 -87.238913 19.731393 43.512481 74.301023 8.035096 -58.564441 -41.072178 -45.548404 -88.222664 12.847800 7.125000 0.000000 0.000000 12.943600 -65.077000 -6.332900 
-24.189379 4.152762 3.794673 32.173428 -25.418056 67.649009 151.423654 69.112044 -162.152496 -71.502645 -75.300004 -96.519873 -82.134634 -65.715488 86.930250 124.121507 65.469712 -151.148790 1.621800 8.029500 22.803600 39.301964 -36.572389 -28.762531 25.611455 31.895926 -111.145963 160.031382 17.205622 146.344352 -129.172119 -75.874554 -88.415659 -4.076900 -12.262000 36.665100 164.424510 80.647342 157.208461 7.666958 42.673997 122.724296 170.850322 -6.622605 46.013815 -40.754307 -43.164422 69.552149 97.419004 59.789697 150.447465 -4.470000 10.485100 12.970600 52.898931 -43.275054 -115.410590 118.620598 75.458909 167.031176 -139.529533 64.641786 -84.526657 48.129421 -75.978515 -32.223987 -142.698650 -88.419399 174.423802 -7.125000 0.000000 0.000000 -4.169200 14.534400 2.997600 -73.649059 16.837164 73.408487 167.526509 0.930056 159.253462 -97.372497 -0.350932 -90.281376 -34.540915 -13.097462 -63.217036 -32.833225 -55.809767 12.698800 7.125000 0.000000 0.000000 13.663400 -65.245300 -6.744300 
-24.173000 4.166035 3.795520 -52.896928 29.852895 -7.011284 19.879064 -85.245757 78.896966 -129.235365 43.761017 -94.372974 -37.165031 2.532827 11.165767 90.431548 69.777447 79.234217 1.605900 7.991900 22.689400 -3.511266 87.564560 -113.170559 42.314229 89.351353 -143.304792 5.614811 60.100980 31.836062 33.082899 -20.390807 143.505960 -4.075300 -12.259900 36.657800 -8.979489 2.612297 67.517566 7.095525 -22.436473 39.593005 150.882047 23.669614 150.501493 51.719837 22.397598 95.825746 50.891939 12.577805 41.625554 -5.399300 10.461100 11.775700 -88.845062 -6.181453 171.380522 -123.591427 -9.937459 -101.495672 176.980373 34.950019 -112.689857 25.692562 -32.532836 -23.156068 14.292002 -49.903752 -5.579901 -7.125000 0.000000 0.000000 -4.197300 14.497200 3.021200 6.000787 26.899003 -98.385381 26.777002 54.871621 -54.377398 16.045007 86.926356 50.772271 16.075455 -49.060289 -46.258037 -34.945985 -84.092549 12.687300 7.125000 0.000000 0.000000 13.613900 -65.200500 -6.705300 
-24.162268 4.172530 3.794390 -155.821830 34.908291 -134.726061 -163.742148 -6.346874 131.981436 -94.879060 65.336333 11.381016 -23.980172 4.618864 -16.940204 5.371938 0.520741 130.468996 1.674800 8.153100 23.180000 55.704642 -29.894490 -70.623111 7.431108 17.227273 -123.873016 -86.315583 -54.997986 -7.117152 169.051143 -41.785120 -136.161845 -4.075600 -12.260300 36.659200 66.441785 46.667622 -65.967606 87.076459 19.254786 159.913712 9.951533 31.043801 142.573522 -22.521234 -57.970085 61.980847 -72.566127 -20.089140 -164.207201 -5.685000 10.469600 11.449100 -86.253105 -9.485349 -26.130414 13.768134 -12.356970 47.837857 118.839199 -19.868115 123.746253 27.498532 -49.883649 5.378366 7.618666 -73.718026 -5.599800 -7.125000 0.000000 0.000000 -4.034800 14.600500 2.894700 -124.191225 6.444659 16.910203 -123.252019 -9.264667 50.090711 -135.124290 -64.410765 -107.964889 38.084781 -70.129849 -25.971494 144.908484 -88.692777 -167.240199 7.125000 0.000000 0.000000 13.397700 -65.192600 -6.594600 
-24.152949 4.176201 3.801733 -117.425174 -80.056146 -170.313642 92.457315 -4.641743 46.743782 44.792784 15.861321 -177.439786 88.577261 -10.446279 -29.523100 -94.855912 73.952336 -134.271029 1.605100 7.990000 22.683600 -88.243395 -57.302171 -19.702092 -48.619314 62.339480 67.437135 33.870398 12.538789 80.924537 172.622954 -35.802758 -7.899274 -4.120900 -12.319600 36.872200 -159.965265 78.934459 -170.951831 40.897406 23.867811 70.702084 159.276208 80.970597 61.962627 146.390239 12.511480 -57.782530 147.994061 -8.642573 -6.361798 -5.253300 10.443000 11.924200 -152.055600 -28.114346 -118.848088 -120.015150 -57.190089 -128.095762 -17.577208 -17.300424 -105.616047 -11.420808 -3.923856 -38.256205 13.839238 -10.170157 -5.493599 -7.125000 0.000000 0.000000 -3.752900 15.144800 2.647900 -144.203447 54.035075 21.330287 138.862232 37.628490 108.462089 -62.667979 -51.437819 87.864156 42.099362 -54.575877 -5.046376 -43.621706 -63.623174 12.850000 7.125000 0.000000 0.000000 13.441900 -65.354500 -6.667000 
-24.150690 4.180438 3.817547 -157.579506 -23.475364 70.657040 -15.027642 84.995078 42.511583 25.375683 -53.235541 -42.820303 24.447652 59.429544 100.191539 124.350890 -77.353564 130.169939 1.377700 7.427500 20.988300 -52.615618 -7.329678 123.293896 -106.163926 40.518932 136.245376 168.291487 -86.931015 142.432936 161.596743 -0.398745 -114.688069 -4.141200 -12.346000 36.967200 161.189437 1.662736 -11.767124 -140.973955 74.096447 -91.096095 -64.069103 76.502677 141.425722 -164.162978 1.122541 -172.627364 43.559162 -48.167381 -36.211848 -4.148900 10.416200 13.397400 -89.500589 28.295512 -59.307020 -13.518399 -13.903718 61.831365 -58.520352 27.690526 -105.853864 -160.860006 -73.684360 154.353489 -162.415454 -53.668057 174.703300 -7.125000 0.000000 0.000000 -3.571500 15.820900 2.467400 29.129099 -38.782691 65.638607 -27.414866 -35.314724 154.326256 -24.583040 3.657166 -70.811556 -172.481053 -77.021304 162.141396 -76.237448 -82.585563 12.963502 7.125000 0.000000 0.000000 13.385300 -65.496400 -6.682300 
